<svg xmlns="http://www.w3.org/2000/svg" xmlns:xlink="http://www.w3.org/1999/xlink" width="200" zoomAndPan="magnify" viewBox="0 0 150 149.999998" height="200" preserveAspectRatio="xMidYMid meet" version="1.0"><defs><clipPath id="id1"><path d="M 38.28125 45 L 76 45 L 76 51 L 38.28125 51 Z M 38.28125 45 " clip-rule="nonzero"/></clipPath><clipPath id="id2"><path d="M 38.28125 38.011719 L 76 38.011719 L 76 43 L 38.28125 43 Z M 38.28125 38.011719 " clip-rule="nonzero"/></clipPath><clipPath id="id3"><path d="M 75 45 L 111.78125 45 L 111.78125 51 L 75 51 Z M 75 45 " clip-rule="nonzero"/></clipPath><clipPath id="id4"><path d="M 75 38.011719 L 111.78125 38.011719 L 111.78125 43 L 75 43 Z M 75 38.011719 " clip-rule="nonzero"/></clipPath><clipPath id="id5"><path d="M 54 105 L 76 105 L 76 112.261719 L 54 112.261719 Z M 54 105 " clip-rule="nonzero"/></clipPath><clipPath id="id6"><path d="M 75 105 L 97 105 L 97 112.261719 L 75 112.261719 Z M 75 105 " clip-rule="nonzero"/></clipPath><clipPath id="id7"><path d="M 75 82 L 111.78125 82 L 111.78125 89 L 75 89 Z M 75 82 " clip-rule="nonzero"/></clipPath></defs><rect x="-15" width="180" fill="#ffffff" y="-15" height="179.999997" fill-opacity="1"/><rect x="-15" width="180" fill="#ffffff" y="-15" height="179.999997" fill-opacity="1"/><rect x="-15" width="180" fill="#922323" y="-15" height="179.999997" fill-opacity="1"/><g clip-path="url(#id1)"><path fill="#683e21" d="M 75.046875 50.441406 L 39.601562 50.441406 C 38.878906 50.441406 38.292969 49.851562 38.292969 49.128906 L 38.292969 46.753906 C 38.292969 46.140625 38.789062 45.644531 39.398438 45.644531 L 75.046875 45.644531 Z M 75.046875 50.441406 " fill-opacity="1" fill-rule="nonzero"/></g><g clip-path="url(#id2)"><path fill="#683e21" d="M 75.046875 42.835938 L 39.601562 42.835938 C 38.878906 42.835938 38.292969 42.25 38.292969 41.523438 L 38.292969 39.148438 C 38.292969 38.535156 38.789062 38.039062 39.398438 38.039062 L 75.046875 38.039062 Z M 75.046875 42.835938 " fill-opacity="1" fill-rule="nonzero"/></g><g clip-path="url(#id3)"><path fill="#4d2c12" d="M 75.046875 50.441406 L 110.488281 50.441406 C 111.210938 50.441406 111.796875 49.851562 111.796875 49.128906 L 111.796875 46.753906 C 111.796875 46.140625 111.304688 45.644531 110.695312 45.644531 L 75.046875 45.644531 Z M 75.046875 50.441406 " fill-opacity="1" fill-rule="nonzero"/></g><g clip-path="url(#id4)"><path fill="#4d2c12" d="M 75.046875 42.835938 L 110.488281 42.835938 C 111.210938 42.835938 111.796875 42.25 111.796875 41.523438 L 111.796875 39.148438 C 111.796875 38.535156 111.304688 38.039062 110.695312 38.039062 L 75.046875 38.039062 Z M 75.046875 42.835938 " fill-opacity="1" fill-rule="nonzero"/></g><path fill="#ef7a36" d="M 41.316406 42.632812 L 64.609375 42.632812 L 64.609375 82.914062 L 41.316406 82.914062 Z M 41.316406 42.632812 " fill-opacity="1" fill-rule="nonzero"/><path fill="#f2b630" d="M 45.824219 42.632812 L 50.230469 42.632812 L 50.230469 82.914062 L 45.824219 82.914062 Z M 45.824219 42.632812 " fill-opacity="1" fill-rule="nonzero"/><path fill="#f2b630" d="M 54.464844 42.632812 L 58.875 42.632812 L 58.875 82.914062 L 54.464844 82.914062 Z M 54.464844 42.632812 " fill-opacity="1" fill-rule="nonzero"/><path fill="#ef7a36" d="M 104.710938 85.789062 C 104.710938 86.371094 104.683594 86.945312 104.625 87.523438 C 104.570312 88.097656 104.484375 88.671875 104.371094 89.238281 C 104.257812 89.804688 104.121094 90.367188 103.953125 90.921875 C 103.785156 91.476562 103.589844 92.019531 103.367188 92.554688 C 103.148438 93.089844 102.902344 93.613281 102.628906 94.121094 C 102.355469 94.632812 102.0625 95.128906 101.742188 95.609375 C 101.417969 96.089844 101.074219 96.554688 100.710938 97.003906 C 100.34375 97.449219 99.957031 97.878906 99.546875 98.289062 C 99.140625 98.699219 98.714844 99.085938 98.265625 99.453125 C 97.820312 99.820312 97.359375 100.164062 96.878906 100.488281 C 96.398438 100.808594 95.902344 101.105469 95.394531 101.378906 C 94.886719 101.652344 94.363281 101.898438 93.832031 102.121094 C 93.296875 102.339844 92.753906 102.535156 92.203125 102.703125 C 91.648438 102.871094 91.089844 103.011719 90.523438 103.125 C 89.957031 103.238281 89.386719 103.324219 88.8125 103.378906 C 88.238281 103.4375 87.664062 103.464844 87.085938 103.464844 C 86.507812 103.464844 85.933594 103.4375 85.359375 103.378906 C 84.785156 103.324219 84.214844 103.238281 83.648438 103.125 C 83.082031 103.011719 82.523438 102.871094 81.96875 102.703125 C 81.417969 102.535156 80.875 102.339844 80.339844 102.121094 C 79.808594 101.898438 79.285156 101.652344 78.777344 101.378906 C 78.269531 101.105469 77.773438 100.808594 77.292969 100.488281 C 76.8125 100.164062 76.351562 99.820312 75.90625 99.453125 C 75.457031 99.085938 75.03125 98.699219 74.625 98.289062 C 74.214844 97.878906 73.828125 97.449219 73.460938 97.003906 C 73.09375 96.554688 72.753906 96.089844 72.429688 95.609375 C 72.109375 95.128906 71.8125 94.632812 71.542969 94.121094 C 71.269531 93.613281 71.023438 93.089844 70.800781 92.554688 C 70.582031 92.019531 70.386719 91.476562 70.21875 90.921875 C 70.050781 90.367188 69.914062 89.804688 69.800781 89.238281 C 69.6875 88.671875 69.601562 88.097656 69.546875 87.523438 C 69.488281 86.945312 69.460938 86.371094 69.460938 85.789062 C 69.460938 85.210938 69.488281 84.632812 69.546875 84.058594 C 69.601562 83.480469 69.6875 82.910156 69.800781 82.34375 C 69.914062 81.773438 70.050781 81.214844 70.21875 80.660156 C 70.386719 80.105469 70.582031 79.5625 70.800781 79.027344 C 71.023438 78.492188 71.269531 77.96875 71.542969 77.457031 C 71.8125 76.949219 72.109375 76.453125 72.429688 75.972656 C 72.753906 75.488281 73.09375 75.023438 73.460938 74.578125 C 73.828125 74.128906 74.214844 73.703125 74.625 73.292969 C 75.03125 72.882812 75.457031 72.496094 75.90625 72.128906 C 76.351562 71.761719 76.8125 71.417969 77.292969 71.09375 C 77.773438 70.773438 78.269531 70.476562 78.777344 70.203125 C 79.285156 69.929688 79.808594 69.683594 80.339844 69.460938 C 80.875 69.238281 81.417969 69.042969 81.96875 68.875 C 82.523438 68.707031 83.082031 68.566406 83.648438 68.457031 C 84.214844 68.34375 84.785156 68.257812 85.359375 68.199219 C 85.933594 68.144531 86.507812 68.117188 87.085938 68.117188 C 87.664062 68.117188 88.238281 68.144531 88.8125 68.199219 C 89.386719 68.257812 89.957031 68.34375 90.523438 68.457031 C 91.089844 68.566406 91.648438 68.707031 92.203125 68.875 C 92.753906 69.042969 93.296875 69.238281 93.832031 69.460938 C 94.363281 69.683594 94.886719 69.929688 95.394531 70.203125 C 95.902344 70.476562 96.398438 70.773438 96.878906 71.09375 C 97.359375 71.417969 97.820312 71.761719 98.265625 72.128906 C 98.714844 72.496094 99.140625 72.882812 99.546875 73.292969 C 99.957031 73.703125 100.34375 74.128906 100.710938 74.578125 C 101.074219 75.023438 101.417969 75.488281 101.742188 75.972656 C 102.0625 76.453125 102.355469 76.949219 102.628906 77.457031 C 102.902344 77.96875 103.148438 78.492188 103.367188 79.027344 C 103.589844 79.5625 103.785156 80.105469 103.953125 80.660156 C 104.121094 81.214844 104.257812 81.773438 104.371094 82.34375 C 104.484375 82.910156 104.570312 83.480469 104.625 84.058594 C 104.683594 84.632812 104.710938 85.210938 104.710938 85.789062 Z M 104.710938 85.789062 " fill-opacity="1" fill-rule="nonzero"/><path fill="#f2b630" d="M 100.613281 85.789062 C 100.613281 86.679688 100.523438 87.5625 100.351562 88.4375 C 100.179688 89.308594 99.921875 90.160156 99.582031 90.980469 C 99.242188 91.804688 98.824219 92.585938 98.332031 93.328125 C 97.839844 94.066406 97.277344 94.753906 96.648438 95.382812 C 96.023438 96.011719 95.339844 96.574219 94.601562 97.070312 C 93.863281 97.5625 93.082031 97.980469 92.261719 98.324219 C 91.441406 98.664062 90.597656 98.921875 89.726562 99.09375 C 88.855469 99.269531 87.972656 99.355469 87.085938 99.355469 C 86.199219 99.355469 85.316406 99.269531 84.445312 99.09375 C 83.574219 98.921875 82.730469 98.664062 81.910156 98.324219 C 81.089844 97.980469 80.308594 97.5625 79.570312 97.070312 C 78.832031 96.574219 78.148438 96.011719 77.519531 95.382812 C 76.894531 94.753906 76.332031 94.066406 75.839844 93.328125 C 75.347656 92.585938 74.929688 91.804688 74.589844 90.980469 C 74.25 90.160156 73.992188 89.308594 73.820312 88.4375 C 73.644531 87.5625 73.558594 86.679688 73.558594 85.789062 C 73.558594 84.898438 73.644531 84.019531 73.820312 83.144531 C 73.992188 82.269531 74.25 81.421875 74.589844 80.601562 C 74.929688 79.777344 75.347656 78.996094 75.839844 78.253906 C 76.332031 77.515625 76.894531 76.828125 77.519531 76.199219 C 78.148438 75.570312 78.832031 75.007812 79.570312 74.511719 C 80.308594 74.015625 81.089844 73.597656 81.910156 73.257812 C 82.730469 72.917969 83.574219 72.660156 84.445312 72.488281 C 85.316406 72.3125 86.199219 72.226562 87.085938 72.226562 C 87.972656 72.226562 88.855469 72.3125 89.726562 72.488281 C 90.597656 72.660156 91.441406 72.917969 92.261719 73.257812 C 93.082031 73.597656 93.863281 74.015625 94.601562 74.511719 C 95.339844 75.007812 96.023438 75.570312 96.648438 76.199219 C 97.277344 76.828125 97.839844 77.515625 98.332031 78.253906 C 98.824219 78.996094 99.242188 79.777344 99.582031 80.601562 C 99.921875 81.421875 100.179688 82.269531 100.351562 83.144531 C 100.523438 84.019531 100.613281 84.898438 100.613281 85.789062 Z M 100.613281 85.789062 " fill-opacity="1" fill-rule="nonzero"/><path fill="#ef7a36" d="M 96.785156 85.789062 C 96.785156 86.429688 96.722656 87.0625 96.601562 87.6875 C 96.476562 88.316406 96.292969 88.921875 96.046875 89.511719 C 95.804688 90.101562 95.503906 90.664062 95.152344 91.195312 C 94.796875 91.726562 94.394531 92.21875 93.945312 92.667969 C 93.496094 93.121094 93.003906 93.523438 92.476562 93.878906 C 91.945312 94.234375 91.386719 94.535156 90.796875 94.777344 C 90.210938 95.023438 89.601562 95.207031 88.976562 95.332031 C 88.355469 95.457031 87.722656 95.519531 87.085938 95.519531 C 86.449219 95.519531 85.816406 95.457031 85.191406 95.332031 C 84.570312 95.207031 83.960938 95.023438 83.375 94.777344 C 82.785156 94.535156 82.226562 94.234375 81.695312 93.878906 C 81.167969 93.523438 80.675781 93.121094 80.226562 92.667969 C 79.777344 92.21875 79.375 91.726562 79.019531 91.195312 C 78.667969 90.664062 78.367188 90.105469 78.125 89.511719 C 77.878906 88.921875 77.695312 88.316406 77.570312 87.6875 C 77.449219 87.0625 77.386719 86.429688 77.386719 85.789062 C 77.386719 85.152344 77.449219 84.519531 77.570312 83.894531 C 77.695312 83.265625 77.878906 82.65625 78.125 82.066406 C 78.367188 81.476562 78.667969 80.917969 79.019531 80.386719 C 79.375 79.855469 79.777344 79.363281 80.226562 78.910156 C 80.675781 78.460938 81.167969 78.058594 81.695312 77.703125 C 82.226562 77.347656 82.785156 77.046875 83.375 76.804688 C 83.960938 76.558594 84.570312 76.375 85.191406 76.25 C 85.816406 76.125 86.449219 76.0625 87.085938 76.0625 C 87.722656 76.0625 88.355469 76.125 88.976562 76.25 C 89.601562 76.375 90.210938 76.558594 90.796875 76.804688 C 91.386719 77.046875 91.945312 77.347656 92.476562 77.703125 C 93.003906 78.058594 93.496094 78.460938 93.945312 78.910156 C 94.394531 79.363281 94.796875 79.855469 95.152344 80.386719 C 95.503906 80.917969 95.804688 81.476562 96.046875 82.066406 C 96.292969 82.65625 96.476562 83.265625 96.601562 83.894531 C 96.722656 84.519531 96.785156 85.152344 96.785156 85.789062 Z M 96.785156 85.789062 " fill-opacity="1" fill-rule="nonzero"/><path fill="#f2b630" d="M 93.097656 85.789062 C 93.097656 86.1875 93.058594 86.578125 92.980469 86.964844 C 92.90625 87.355469 92.789062 87.730469 92.640625 88.097656 C 92.488281 88.464844 92.304688 88.8125 92.085938 89.140625 C 91.863281 89.46875 91.617188 89.773438 91.335938 90.054688 C 91.058594 90.332031 90.753906 90.582031 90.425781 90.804688 C 90.097656 91.023438 89.75 91.207031 89.386719 91.359375 C 89.023438 91.511719 88.644531 91.625 88.257812 91.703125 C 87.871094 91.78125 87.480469 91.820312 87.085938 91.820312 C 86.691406 91.820312 86.300781 91.78125 85.914062 91.703125 C 85.527344 91.625 85.148438 91.511719 84.785156 91.359375 C 84.421875 91.207031 84.074219 91.023438 83.746094 90.804688 C 83.417969 90.582031 83.113281 90.332031 82.835938 90.054688 C 82.554688 89.773438 82.304688 89.46875 82.085938 89.140625 C 81.867188 88.8125 81.683594 88.464844 81.53125 88.097656 C 81.378906 87.730469 81.265625 87.355469 81.191406 86.964844 C 81.113281 86.578125 81.074219 86.1875 81.074219 85.789062 C 81.074219 85.394531 81.113281 85.003906 81.191406 84.613281 C 81.265625 84.226562 81.378906 83.847656 81.53125 83.484375 C 81.683594 83.117188 81.867188 82.769531 82.085938 82.441406 C 82.304688 82.113281 82.554688 81.808594 82.835938 81.527344 C 83.113281 81.246094 83.417969 80.996094 83.746094 80.777344 C 84.074219 80.558594 84.421875 80.371094 84.785156 80.222656 C 85.148438 80.070312 85.527344 79.953125 85.914062 79.878906 C 86.300781 79.800781 86.691406 79.761719 87.085938 79.761719 C 87.480469 79.761719 87.871094 79.800781 88.257812 79.878906 C 88.644531 79.953125 89.023438 80.070312 89.386719 80.222656 C 89.75 80.371094 90.097656 80.558594 90.425781 80.777344 C 90.753906 80.996094 91.058594 81.246094 91.335938 81.527344 C 91.617188 81.808594 91.863281 82.113281 92.085938 82.441406 C 92.304688 82.769531 92.488281 83.117188 92.640625 83.484375 C 92.789062 83.847656 92.90625 84.226562 92.980469 84.613281 C 93.058594 85.003906 93.097656 85.394531 93.097656 85.789062 Z M 93.097656 85.789062 " fill-opacity="1" fill-rule="nonzero"/><path fill="#f3d32e" d="M 81.074219 85.789062 C 81.074219 86.371094 81.046875 86.945312 80.988281 87.523438 C 80.933594 88.097656 80.847656 88.671875 80.734375 89.238281 C 80.621094 89.804688 80.484375 90.367188 80.316406 90.921875 C 80.148438 91.476562 79.953125 92.019531 79.734375 92.554688 C 79.511719 93.089844 79.265625 93.613281 78.992188 94.121094 C 78.722656 94.632812 78.425781 95.128906 78.105469 95.609375 C 77.78125 96.089844 77.441406 96.554688 77.074219 97.003906 C 76.707031 97.449219 76.320312 97.878906 75.910156 98.289062 C 75.503906 98.699219 75.078125 99.085938 74.628906 99.453125 C 74.183594 99.820312 73.722656 100.164062 73.242188 100.488281 C 72.761719 100.808594 72.265625 101.105469 71.757812 101.378906 C 71.25 101.652344 70.726562 101.898438 70.195312 102.121094 C 69.660156 102.339844 69.117188 102.535156 68.566406 102.703125 C 68.011719 102.871094 67.453125 103.011719 66.886719 103.125 C 66.320312 103.238281 65.75 103.324219 65.175781 103.378906 C 64.601562 103.4375 64.027344 103.464844 63.449219 103.464844 C 62.871094 103.464844 62.296875 103.4375 61.722656 103.378906 C 61.148438 103.324219 60.578125 103.238281 60.011719 103.125 C 59.445312 103.011719 58.886719 102.871094 58.332031 102.703125 C 57.78125 102.535156 57.238281 102.339844 56.703125 102.121094 C 56.171875 101.898438 55.648438 101.652344 55.140625 101.378906 C 54.632812 101.105469 54.136719 100.808594 53.65625 100.488281 C 53.175781 100.164062 52.714844 99.820312 52.269531 99.453125 C 51.820312 99.085938 51.394531 98.699219 50.988281 98.289062 C 50.578125 97.878906 50.191406 97.449219 49.824219 97.003906 C 49.460938 96.554688 49.117188 96.089844 48.796875 95.609375 C 48.472656 95.128906 48.179688 94.632812 47.90625 94.121094 C 47.632812 93.613281 47.386719 93.089844 47.167969 92.554688 C 46.945312 92.019531 46.75 91.476562 46.582031 90.921875 C 46.417969 90.367188 46.277344 89.804688 46.164062 89.238281 C 46.050781 88.671875 45.964844 88.097656 45.910156 87.523438 C 45.851562 86.945312 45.824219 86.371094 45.824219 85.789062 C 45.824219 85.210938 45.851562 84.632812 45.910156 84.058594 C 45.964844 83.480469 46.050781 82.910156 46.164062 82.34375 C 46.277344 81.773438 46.417969 81.214844 46.582031 80.660156 C 46.75 80.105469 46.945312 79.5625 47.167969 79.027344 C 47.386719 78.492188 47.632812 77.96875 47.90625 77.457031 C 48.179688 76.949219 48.472656 76.453125 48.796875 75.972656 C 49.117188 75.488281 49.460938 75.023438 49.824219 74.578125 C 50.191406 74.128906 50.578125 73.703125 50.988281 73.292969 C 51.394531 72.882812 51.820312 72.496094 52.269531 72.128906 C 52.714844 71.761719 53.175781 71.417969 53.65625 71.09375 C 54.136719 70.773438 54.632812 70.476562 55.140625 70.203125 C 55.648438 69.929688 56.171875 69.683594 56.703125 69.460938 C 57.238281 69.238281 57.78125 69.042969 58.332031 68.875 C 58.886719 68.707031 59.445312 68.566406 60.011719 68.457031 C 60.578125 68.34375 61.148438 68.257812 61.722656 68.199219 C 62.296875 68.144531 62.871094 68.117188 63.449219 68.117188 C 64.027344 68.117188 64.601562 68.144531 65.175781 68.199219 C 65.75 68.257812 66.320312 68.34375 66.886719 68.457031 C 67.453125 68.566406 68.011719 68.707031 68.566406 68.875 C 69.117188 69.042969 69.660156 69.238281 70.195312 69.460938 C 70.726562 69.683594 71.25 69.929688 71.757812 70.203125 C 72.265625 70.476562 72.761719 70.773438 73.242188 71.09375 C 73.722656 71.417969 74.183594 71.761719 74.628906 72.128906 C 75.078125 72.496094 75.503906 72.882812 75.910156 73.292969 C 76.320312 73.703125 76.707031 74.128906 77.074219 74.578125 C 77.441406 75.023438 77.78125 75.488281 78.105469 75.972656 C 78.425781 76.453125 78.722656 76.949219 78.992188 77.457031 C 79.265625 77.96875 79.511719 78.492188 79.734375 79.027344 C 79.953125 79.5625 80.148438 80.105469 80.316406 80.660156 C 80.484375 81.214844 80.621094 81.773438 80.734375 82.34375 C 80.847656 82.910156 80.933594 83.480469 80.988281 84.058594 C 81.046875 84.632812 81.074219 85.210938 81.074219 85.789062 Z M 81.074219 85.789062 " fill-opacity="1" fill-rule="nonzero"/><path fill="#f2b630" d="M 76.976562 85.789062 C 76.976562 86.679688 76.890625 87.5625 76.714844 88.4375 C 76.542969 89.308594 76.285156 90.160156 75.945312 90.980469 C 75.605469 91.804688 75.1875 92.585938 74.695312 93.328125 C 74.203125 94.066406 73.640625 94.753906 73.015625 95.382812 C 72.386719 96.011719 71.703125 96.574219 70.964844 97.070312 C 70.226562 97.5625 69.445312 97.980469 68.625 98.324219 C 67.804688 98.664062 66.960938 98.921875 66.089844 99.09375 C 65.21875 99.269531 64.335938 99.355469 63.449219 99.355469 C 62.5625 99.355469 61.683594 99.269531 60.8125 99.09375 C 59.941406 98.921875 59.09375 98.664062 58.273438 98.324219 C 57.453125 97.980469 56.671875 97.5625 55.933594 97.070312 C 55.195312 96.574219 54.511719 96.011719 53.886719 95.382812 C 53.257812 94.753906 52.695312 94.066406 52.203125 93.328125 C 51.710938 92.585938 51.292969 91.804688 50.953125 90.980469 C 50.613281 90.160156 50.355469 89.308594 50.183594 88.4375 C 50.011719 87.5625 49.921875 86.679688 49.921875 85.789062 C 49.921875 84.898438 50.011719 84.019531 50.183594 83.144531 C 50.355469 82.269531 50.613281 81.421875 50.953125 80.601562 C 51.292969 79.777344 51.710938 78.996094 52.203125 78.253906 C 52.695312 77.515625 53.257812 76.828125 53.886719 76.199219 C 54.511719 75.570312 55.195312 75.007812 55.933594 74.511719 C 56.671875 74.015625 57.453125 73.597656 58.273438 73.257812 C 59.09375 72.917969 59.941406 72.660156 60.8125 72.488281 C 61.683594 72.3125 62.5625 72.226562 63.449219 72.226562 C 64.335938 72.226562 65.21875 72.3125 66.089844 72.488281 C 66.960938 72.660156 67.804688 72.917969 68.625 73.257812 C 69.445312 73.597656 70.226562 74.015625 70.964844 74.511719 C 71.703125 75.007812 72.386719 75.570312 73.015625 76.199219 C 73.640625 76.828125 74.203125 77.515625 74.695312 78.253906 C 75.1875 78.996094 75.605469 79.777344 75.945312 80.601562 C 76.285156 81.421875 76.542969 82.269531 76.714844 83.144531 C 76.890625 84.019531 76.976562 84.898438 76.976562 85.789062 Z M 76.976562 85.789062 " fill-opacity="1" fill-rule="nonzero"/><path fill="#f3d32e" d="M 73.148438 85.789062 C 73.148438 86.429688 73.085938 87.0625 72.964844 87.6875 C 72.839844 88.316406 72.65625 88.921875 72.410156 89.511719 C 72.167969 90.101562 71.867188 90.664062 71.515625 91.195312 C 71.160156 91.726562 70.757812 92.21875 70.308594 92.667969 C 69.859375 93.121094 69.367188 93.523438 68.839844 93.878906 C 68.308594 94.234375 67.75 94.535156 67.160156 94.777344 C 66.574219 95.023438 65.964844 95.207031 65.34375 95.332031 C 64.71875 95.457031 64.085938 95.519531 63.449219 95.519531 C 62.8125 95.519531 62.179688 95.457031 61.558594 95.332031 C 60.933594 95.207031 60.324219 95.023438 59.738281 94.777344 C 59.148438 94.535156 58.589844 94.234375 58.058594 93.878906 C 57.53125 93.523438 57.039062 93.121094 56.589844 92.667969 C 56.140625 92.21875 55.738281 91.726562 55.382812 91.195312 C 55.03125 90.664062 54.730469 90.105469 54.488281 89.511719 C 54.242188 88.921875 54.058594 88.316406 53.933594 87.6875 C 53.8125 87.0625 53.75 86.429688 53.75 85.789062 C 53.75 85.152344 53.8125 84.519531 53.933594 83.894531 C 54.058594 83.265625 54.242188 82.65625 54.488281 82.066406 C 54.730469 81.476562 55.03125 80.917969 55.382812 80.386719 C 55.738281 79.855469 56.140625 79.363281 56.589844 78.910156 C 57.039062 78.460938 57.53125 78.058594 58.058594 77.703125 C 58.589844 77.347656 59.148438 77.046875 59.738281 76.804688 C 60.324219 76.558594 60.933594 76.375 61.558594 76.25 C 62.179688 76.125 62.8125 76.0625 63.449219 76.0625 C 64.085938 76.0625 64.71875 76.125 65.34375 76.25 C 65.964844 76.375 66.574219 76.558594 67.160156 76.804688 C 67.75 77.046875 68.308594 77.347656 68.839844 77.703125 C 69.367188 78.058594 69.859375 78.460938 70.308594 78.910156 C 70.757812 79.363281 71.160156 79.855469 71.515625 80.386719 C 71.867188 80.917969 72.167969 81.476562 72.410156 82.066406 C 72.65625 82.65625 72.839844 83.265625 72.964844 83.894531 C 73.085938 84.519531 73.148438 85.152344 73.148438 85.789062 Z M 73.148438 85.789062 " fill-opacity="1" fill-rule="nonzero"/><path fill="#f2b630" d="M 69.460938 85.789062 C 69.460938 86.1875 69.421875 86.578125 69.34375 86.964844 C 69.269531 87.355469 69.15625 87.730469 69.003906 88.097656 C 68.851562 88.464844 68.667969 88.8125 68.449219 89.140625 C 68.230469 89.46875 67.980469 89.773438 67.699219 90.054688 C 67.421875 90.332031 67.117188 90.582031 66.789062 90.804688 C 66.460938 91.023438 66.113281 91.207031 65.75 91.359375 C 65.386719 91.511719 65.007812 91.625 64.621094 91.703125 C 64.234375 91.78125 63.84375 91.820312 63.449219 91.820312 C 63.054688 91.820312 62.664062 91.78125 62.277344 91.703125 C 61.890625 91.625 61.511719 91.511719 61.148438 91.359375 C 60.785156 91.207031 60.4375 91.023438 60.109375 90.804688 C 59.78125 90.582031 59.476562 90.332031 59.199219 90.054688 C 58.917969 89.773438 58.671875 89.46875 58.449219 89.140625 C 58.230469 88.8125 58.046875 88.464844 57.894531 88.097656 C 57.746094 87.730469 57.628906 87.355469 57.554688 86.964844 C 57.476562 86.578125 57.4375 86.1875 57.4375 85.789062 C 57.4375 85.394531 57.476562 85.003906 57.554688 84.613281 C 57.628906 84.226562 57.746094 83.847656 57.894531 83.484375 C 58.046875 83.117188 58.230469 82.769531 58.449219 82.441406 C 58.671875 82.113281 58.917969 81.808594 59.199219 81.527344 C 59.476562 81.246094 59.78125 80.996094 60.109375 80.777344 C 60.4375 80.558594 60.785156 80.371094 61.148438 80.222656 C 61.511719 80.070312 61.890625 79.953125 62.277344 79.878906 C 62.664062 79.800781 63.054688 79.761719 63.449219 79.761719 C 63.84375 79.761719 64.234375 79.800781 64.621094 79.878906 C 65.007812 79.953125 65.386719 80.070312 65.75 80.222656 C 66.113281 80.371094 66.460938 80.558594 66.789062 80.777344 C 67.117188 80.996094 67.421875 81.246094 67.699219 81.527344 C 67.980469 81.808594 68.230469 82.113281 68.449219 82.441406 C 68.667969 82.769531 68.851562 83.117188 69.003906 83.484375 C 69.15625 83.847656 69.269531 84.226562 69.34375 84.613281 C 69.421875 85.003906 69.460938 85.394531 69.460938 85.789062 Z M 69.460938 85.789062 " fill-opacity="1" fill-rule="nonzero"/><path fill="#f2b630" d="M 75.335938 72.742188 L 75.335938 83.871094 L 45.929688 83.871094 C 45.863281 84.503906 45.824219 85.140625 45.824219 85.789062 C 45.824219 95.550781 53.714844 103.464844 63.449219 103.464844 C 73.183594 103.464844 81.074219 95.550781 81.074219 85.789062 C 81.074219 80.621094 78.863281 75.972656 75.335938 72.742188 Z M 75.335938 72.742188 " fill-opacity="1" fill-rule="nonzero"/><path fill="#ef7a36" d="M 75.335938 79.3125 L 75.335938 83.871094 L 50.058594 83.871094 C 49.972656 84.5 49.921875 85.140625 49.921875 85.789062 C 49.921875 93.28125 55.980469 99.355469 63.449219 99.355469 C 70.917969 99.355469 76.976562 93.28125 76.976562 85.789062 C 76.976562 83.445312 76.382812 81.238281 75.335938 79.3125 Z M 75.335938 79.3125 " fill-opacity="1" fill-rule="nonzero"/><path fill="#f3d32e" d="M 53.9375 83.871094 C 53.816406 84.492188 53.75 85.132812 53.75 85.789062 C 53.75 91.164062 58.09375 95.519531 63.449219 95.519531 C 68.808594 95.519531 73.148438 91.164062 73.148438 85.789062 C 73.148438 85.132812 73.082031 84.492188 72.960938 83.871094 Z M 53.9375 83.871094 " fill-opacity="1" fill-rule="nonzero"/><path fill="#f2b630" d="M 57.753906 83.871094 C 57.550781 84.476562 57.4375 85.121094 57.4375 85.789062 C 57.4375 89.121094 60.128906 91.820312 63.449219 91.820312 C 66.769531 91.820312 69.460938 89.121094 69.460938 85.789062 C 69.460938 85.121094 69.347656 84.476562 69.144531 83.871094 Z M 57.753906 83.871094 " fill-opacity="1" fill-rule="nonzero"/><path fill="#d35215" d="M 75.046875 84.285156 L 75.046875 108.945312 L 97.324219 108.945312 C 104.074219 108.945312 109.546875 103.460938 109.546875 96.691406 L 109.546875 84.285156 Z M 75.046875 84.285156 " fill-opacity="1" fill-rule="nonzero"/><path fill="#ef7a36" d="M 75.199219 84.285156 L 39.675781 84.285156 L 39.675781 95.683594 C 39.675781 103.007812 45.597656 108.945312 52.902344 108.945312 L 75.199219 108.945312 Z M 75.199219 84.285156 " fill-opacity="1" fill-rule="nonzero"/><g clip-path="url(#id5)"><path fill="#ef7a36" d="M 75.199219 105.65625 L 54.023438 105.65625 L 54.023438 109.632812 C 54.023438 111.070312 55.183594 112.234375 56.617188 112.234375 L 75.199219 112.234375 Z M 75.199219 105.65625 " fill-opacity="1" fill-rule="nonzero"/></g><g clip-path="url(#id6)"><path fill="#d35215" d="M 96.375 105.65625 L 75.199219 105.65625 L 75.199219 112.234375 L 93.929688 112.234375 C 95.28125 112.234375 96.375 111.136719 96.375 109.78125 Z M 96.375 105.65625 " fill-opacity="1" fill-rule="nonzero"/></g><g clip-path="url(#id7)"><path fill="#cc1417" d="M 75.199219 82.914062 L 75.199219 88.882812 L 109.308594 88.882812 C 110.421875 88.882812 111.328125 87.976562 111.328125 86.859375 L 111.328125 84.535156 C 111.328125 83.640625 110.605469 82.914062 109.710938 82.914062 Z M 75.199219 82.914062 " fill-opacity="1" fill-rule="nonzero"/></g><path fill="#d35215" d="M 39.070312 84.890625 L 39.070312 86.9375 C 39.070312 88.011719 39.941406 88.882812 41.011719 88.882812 L 75.199219 88.882812 L 75.199219 82.914062 L 41.042969 82.914062 C 39.953125 82.914062 39.070312 83.796875 39.070312 84.890625 Z M 39.070312 84.890625 " fill-opacity="1" fill-rule="nonzero"/></svg>